<mxfile host="app.diagrams.net" modified="2021-09-07T08:09:16.022Z" agent="5.0 (Windows NT 10.0; Win64; x64) AppleWebKit/537.36 (KHTML, like Gecko) Chrome/93.0.4577.63 Safari/537.36" etag="6qSlHX3cTpWBf0Ws4m36" version="15.1.0" type="github">
  <diagram id="mu0sAg5Fal3KWtEGmvIp" name="Page-1">
    <mxGraphModel dx="1032" dy="588" grid="1" gridSize="10" guides="1" tooltips="1" connect="1" arrows="1" fold="1" page="1" pageScale="1" pageWidth="827" pageHeight="1169" math="0" shadow="0">
      <root>
        <mxCell id="0" />
        <mxCell id="1" parent="0" />
        <mxCell id="oxEmpA_iilb7ZVmoUZc9-2" value="User" style="shape=umlActor;verticalLabelPosition=bottom;verticalAlign=top;html=1;outlineConnect=0;fontSize=13;fontFamily=Helvetica;" vertex="1" parent="1">
          <mxGeometry x="120" y="260" width="50" height="90" as="geometry" />
        </mxCell>
        <mxCell id="oxEmpA_iilb7ZVmoUZc9-9" value="&lt;font style=&quot;font-size: 15px&quot;&gt;Đăng kí thông tin cá nhân&lt;/font&gt;" style="ellipse;whiteSpace=wrap;html=1;fontFamily=Helvetica;fontSize=13;" vertex="1" parent="1">
          <mxGeometry x="340" y="120" width="260" height="80" as="geometry" />
        </mxCell>
        <mxCell id="oxEmpA_iilb7ZVmoUZc9-12" value="" style="ellipse;whiteSpace=wrap;html=1;align=center;fontFamily=Helvetica;fontSize=13;strokeWidth=1;" vertex="1" parent="1">
          <mxGeometry x="250" y="390" width="140" height="110" as="geometry" />
        </mxCell>
        <mxCell id="oxEmpA_iilb7ZVmoUZc9-13" value="" style="endArrow=none;html=1;rounded=0;fontFamily=Helvetica;fontSize=13;exitX=0.026;exitY=0.375;exitDx=0;exitDy=0;exitPerimeter=0;entryX=0.991;entryY=0.367;entryDx=0;entryDy=0;entryPerimeter=0;" edge="1" parent="1" source="oxEmpA_iilb7ZVmoUZc9-12" target="oxEmpA_iilb7ZVmoUZc9-12">
          <mxGeometry relative="1" as="geometry">
            <mxPoint x="250" y="430" as="sourcePoint" />
            <mxPoint x="370" y="430" as="targetPoint" />
            <Array as="points">
              <mxPoint x="320" y="430" />
            </Array>
          </mxGeometry>
        </mxCell>
        <mxCell id="oxEmpA_iilb7ZVmoUZc9-14" value="&lt;font style=&quot;font-size: 15px&quot;&gt;Đăng nhập&lt;/font&gt;" style="text;html=1;align=center;verticalAlign=middle;resizable=0;points=[];autosize=1;strokeColor=none;fillColor=none;fontSize=13;fontFamily=Helvetica;" vertex="1" parent="1">
          <mxGeometry x="275" y="400" width="90" height="20" as="geometry" />
        </mxCell>
        <mxCell id="oxEmpA_iilb7ZVmoUZc9-15" value="&lt;b&gt;&lt;font style=&quot;font-size: 13px&quot;&gt;Entension points&lt;/font&gt;&lt;/b&gt;" style="text;html=1;align=center;verticalAlign=middle;resizable=0;points=[];autosize=1;strokeColor=none;fillColor=none;fontSize=13;fontFamily=Helvetica;" vertex="1" parent="1">
          <mxGeometry x="270" y="435" width="120" height="20" as="geometry" />
        </mxCell>
        <mxCell id="oxEmpA_iilb7ZVmoUZc9-16" value="Phản hồi" style="text;html=1;align=center;verticalAlign=middle;resizable=0;points=[];autosize=1;strokeColor=none;fillColor=none;fontSize=13;fontFamily=Helvetica;" vertex="1" parent="1">
          <mxGeometry x="275" y="455" width="70" height="20" as="geometry" />
        </mxCell>
        <mxCell id="oxEmpA_iilb7ZVmoUZc9-17" value="&lt;font style=&quot;font-size: 15px&quot;&gt;Thay đổi thông tin cá nhân&lt;/font&gt;" style="ellipse;whiteSpace=wrap;html=1;fontFamily=Helvetica;fontSize=13;" vertex="1" parent="1">
          <mxGeometry x="400" y="250" width="260" height="80" as="geometry" />
        </mxCell>
        <mxCell id="oxEmpA_iilb7ZVmoUZc9-18" value="&lt;span style=&quot;font-size: 15px&quot;&gt;Học qua audio, video&lt;/span&gt;" style="ellipse;whiteSpace=wrap;html=1;fontFamily=Helvetica;fontSize=13;" vertex="1" parent="1">
          <mxGeometry x="420" y="350" width="260" height="80" as="geometry" />
        </mxCell>
        <mxCell id="oxEmpA_iilb7ZVmoUZc9-19" value="&lt;span style=&quot;font-size: 15px&quot;&gt;Làm trắc nghiệm&lt;/span&gt;" style="ellipse;whiteSpace=wrap;html=1;fontFamily=Helvetica;fontSize=13;" vertex="1" parent="1">
          <mxGeometry x="440" y="460" width="260" height="80" as="geometry" />
        </mxCell>
        <mxCell id="oxEmpA_iilb7ZVmoUZc9-20" value="&lt;span style=&quot;font-size: 15px&quot;&gt;Sign out&lt;/span&gt;" style="ellipse;whiteSpace=wrap;html=1;fontFamily=Helvetica;fontSize=13;" vertex="1" parent="1">
          <mxGeometry x="360" y="555" width="90" height="60" as="geometry" />
        </mxCell>
        <mxCell id="oxEmpA_iilb7ZVmoUZc9-26" value="" style="endArrow=none;html=1;fontFamily=Helvetica;fontSize=13;" edge="1" parent="1" target="oxEmpA_iilb7ZVmoUZc9-9">
          <mxGeometry width="50" height="50" relative="1" as="geometry">
            <mxPoint x="170" y="280" as="sourcePoint" />
            <mxPoint x="220" y="230" as="targetPoint" />
          </mxGeometry>
        </mxCell>
        <mxCell id="oxEmpA_iilb7ZVmoUZc9-28" value="" style="endArrow=none;html=1;fontFamily=Helvetica;fontSize=13;entryX=0;entryY=0;entryDx=0;entryDy=0;" edge="1" parent="1" source="oxEmpA_iilb7ZVmoUZc9-2" target="oxEmpA_iilb7ZVmoUZc9-12">
          <mxGeometry width="50" height="50" relative="1" as="geometry">
            <mxPoint x="380" y="370" as="sourcePoint" />
            <mxPoint x="430" y="330" as="targetPoint" />
          </mxGeometry>
        </mxCell>
        <mxCell id="oxEmpA_iilb7ZVmoUZc9-29" value="" style="endArrow=none;html=1;fontFamily=Helvetica;fontSize=13;entryX=0;entryY=1;entryDx=0;entryDy=0;exitX=0.699;exitY=0.044;exitDx=0;exitDy=0;exitPerimeter=0;" edge="1" parent="1" source="oxEmpA_iilb7ZVmoUZc9-12" target="oxEmpA_iilb7ZVmoUZc9-17">
          <mxGeometry width="50" height="50" relative="1" as="geometry">
            <mxPoint x="380" y="370" as="sourcePoint" />
            <mxPoint x="430" y="320" as="targetPoint" />
          </mxGeometry>
        </mxCell>
        <mxCell id="oxEmpA_iilb7ZVmoUZc9-32" value="" style="endArrow=none;html=1;fontFamily=Helvetica;fontSize=13;exitX=0.961;exitY=0.305;exitDx=0;exitDy=0;exitPerimeter=0;" edge="1" parent="1" source="oxEmpA_iilb7ZVmoUZc9-12" target="oxEmpA_iilb7ZVmoUZc9-18">
          <mxGeometry width="50" height="50" relative="1" as="geometry">
            <mxPoint x="380" y="370" as="sourcePoint" />
            <mxPoint x="430" y="320" as="targetPoint" />
          </mxGeometry>
        </mxCell>
        <mxCell id="oxEmpA_iilb7ZVmoUZc9-33" value="" style="endArrow=none;html=1;fontFamily=Helvetica;fontSize=13;entryX=0.092;entryY=0.185;entryDx=0;entryDy=0;entryPerimeter=0;" edge="1" parent="1" source="oxEmpA_iilb7ZVmoUZc9-12" target="oxEmpA_iilb7ZVmoUZc9-19">
          <mxGeometry width="50" height="50" relative="1" as="geometry">
            <mxPoint x="380" y="370" as="sourcePoint" />
            <mxPoint x="430" y="320" as="targetPoint" />
          </mxGeometry>
        </mxCell>
        <mxCell id="oxEmpA_iilb7ZVmoUZc9-35" value="" style="endArrow=none;html=1;fontFamily=Helvetica;fontSize=13;" edge="1" parent="1" source="oxEmpA_iilb7ZVmoUZc9-12" target="oxEmpA_iilb7ZVmoUZc9-20">
          <mxGeometry width="50" height="50" relative="1" as="geometry">
            <mxPoint x="340" y="500" as="sourcePoint" />
            <mxPoint x="430" y="320" as="targetPoint" />
          </mxGeometry>
        </mxCell>
      </root>
    </mxGraphModel>
  </diagram>
</mxfile>
